HIERARCHY
ROOT Hips
{
	OFFSET 0.717293 88.513641 3.606412
	CHANNELS 6 Xposition Yposition Zposition Zrotation Yrotation Xrotation 
	JOINT Spine
	{
		OFFSET -0.000000 8.814246 -2.080107
		CHANNELS 3 Zrotation Yrotation Xrotation
		JOINT Spine1
		{
			OFFSET -0.000000 8.844141 -0.000000
			CHANNELS 3 Zrotation Yrotation Xrotation
			JOINT Spine2
			{
				OFFSET 0.000000 11.682268 0.000000
				CHANNELS 3 Zrotation Yrotation Xrotation
				JOINT Spine3
				{
					OFFSET 0.000000 11.746700 -0.000000
					CHANNELS 3 Zrotation Yrotation Xrotation
					JOINT Neck
					{
						OFFSET 0.000000 17.658264 0.000000
						CHANNELS 3 Zrotation Yrotation Xrotation
						JOINT Neck1
						{
							OFFSET -0.000000 5.101515 -0.000000
							CHANNELS 3 Zrotation Yrotation Xrotation
							JOINT Head
							{
								OFFSET -0.000000 5.101515 -0.000000
								CHANNELS 3 Zrotation Yrotation Xrotation
								JOINT HeadEnd
								{
									OFFSET -0.000000 11.655085 -0.000000
									CHANNELS 3 Zrotation Yrotation Xrotation
									End Site
									{
										OFFSET 0.000000 0.000000 0.000000
									}
								}
							}
						}
					}
					JOINT RightShoulder
					{
						OFFSET -2.625389 11.175210 -0.000000
						CHANNELS 3 Zrotation Yrotation Xrotation
						JOINT RightArm
						{
							OFFSET 0.000000 10.434715 0.000000
							CHANNELS 3 Zrotation Yrotation Xrotation
							JOINT RightForeArm
							{
								OFFSET 0.000000 29.628420 0.000000
								CHANNELS 3 Zrotation Yrotation Xrotation
								JOINT RightHand
								{
									OFFSET 0.000000 22.857611 -0.000000
									CHANNELS 3 Zrotation Yrotation Xrotation
									JOINT RightHandThumb1
									{
										OFFSET -2.867323 3.959563 2.944291
										CHANNELS 3 Zrotation Yrotation Xrotation
										JOINT RightHandThumb2
										{
											OFFSET 0.000000 3.350399 -0.000000
											CHANNELS 3 Zrotation Yrotation Xrotation
											JOINT RightHandThumb3
											{
												OFFSET 0.000000 3.756509 -0.000000
												CHANNELS 3 Zrotation Yrotation Xrotation
												JOINT RightHandThumb4
												{
													OFFSET -0.000000 3.147345 -0.000000
													CHANNELS 3 Zrotation Yrotation Xrotation
													End Site
													{
														OFFSET 0.000000 0.000000 0.000000
													}
												}
											}
										}
									}
									JOINT RightHandIndex1
									{
										OFFSET -0.086752 10.030893 2.345280
										CHANNELS 3 Zrotation Yrotation Xrotation
										JOINT RightHandIndex2
										{
											OFFSET -0.000000 4.061090 -0.000000
											CHANNELS 3 Zrotation Yrotation Xrotation
											JOINT RightHandIndex3
											{
												OFFSET -0.000000 3.248873 0.000000
												CHANNELS 3 Zrotation Yrotation Xrotation
												JOINT RightHandIndex4
												{
													OFFSET -0.000000 2.639709 0.000000
													CHANNELS 3 Zrotation Yrotation Xrotation
													End Site
													{
														OFFSET 0.000000 0.000000 0.000000
													}
												}
											}
										}
									}
									JOINT RightHandMiddle1
									{
										OFFSET 0.104102 9.502952 0.006768
										CHANNELS 3 Zrotation Yrotation Xrotation
										JOINT RightHandMiddle2
										{
											OFFSET 0.000000 4.568727 -0.000000
											CHANNELS 3 Zrotation Yrotation Xrotation
											JOINT RightHandMiddle3
											{
												OFFSET 0.000000 3.654981 -0.000000
												CHANNELS 3 Zrotation Yrotation Xrotation
												JOINT RightHandMiddle4
												{
													OFFSET 0.000000 2.741236 0.000000
													CHANNELS 3 Zrotation Yrotation Xrotation
													End Site
													{
														OFFSET 0.000000 0.000000 0.000000
													}
												}
											}
										}
									}
									JOINT RightHandRing1
									{
										OFFSET 0.086752 8.921708 -2.267442
										CHANNELS 3 Zrotation Yrotation Xrotation
										JOINT RightHandRing2
										{
											OFFSET -0.000000 4.061090 -0.000000
											CHANNELS 3 Zrotation Yrotation Xrotation
											JOINT RightHandRing3
											{
												OFFSET -0.000000 3.654981 0.000000
												CHANNELS 3 Zrotation Yrotation Xrotation
												JOINT RightHandRing4
												{
													OFFSET -0.000000 2.741236 0.000000
													CHANNELS 3 Zrotation Yrotation Xrotation
													End Site
													{
														OFFSET 0.000000 0.000000 0.000000
													}
												}
											}
										}
									}
									JOINT RightHandPinky1
									{
										OFFSET -0.173504 7.976997 -4.467199
										CHANNELS 3 Zrotation Yrotation Xrotation
										JOINT RightHandPinky2
										{
											OFFSET -0.000000 3.350399 -0.000000
											CHANNELS 3 Zrotation Yrotation Xrotation
											JOINT RightHandPinky3
											{
												OFFSET -0.000000 2.842763 0.000000
												CHANNELS 3 Zrotation Yrotation Xrotation
												JOINT RightHandPinky4
												{
													OFFSET 0.000000 2.639709 -0.000000
													CHANNELS 3 Zrotation Yrotation Xrotation
													End Site
													{
														OFFSET 0.000000 0.000000 0.000000
													}
												}
											}
										}
									}
									JOINT RightForeArmEnd
									{
										OFFSET 0.000000 0.000000 0.000000
										CHANNELS 3 Zrotation Yrotation Xrotation
										End Site
										{
											OFFSET 0.000000 0.000000 0.000000
										}
									}
								}
								JOINT RightArmEnd
								{
									OFFSET 0.000000 0.000000 0.000000
									CHANNELS 3 Zrotation Yrotation Xrotation
									End Site
									{
										OFFSET 0.000000 0.000000 0.000000
									}
								}
							}
						}
					}
					JOINT LeftShoulder
					{
						OFFSET 2.625389 11.175210 -0.000000
						CHANNELS 3 Zrotation Yrotation Xrotation
						JOINT LeftArm
						{
							OFFSET 0.000000 10.813635 0.000000
							CHANNELS 3 Zrotation Yrotation Xrotation
							JOINT LeftForeArm
							{
								OFFSET -0.000000 28.724781 -0.000000
								CHANNELS 3 Zrotation Yrotation Xrotation
								JOINT LeftHand
								{
									OFFSET 0.644384 25.716167 -0.328871
									CHANNELS 3 Zrotation Yrotation Xrotation
									JOINT LeftHandThumb1
									{
										OFFSET 2.867323 3.959563 2.944291
										CHANNELS 3 Zrotation Yrotation Xrotation
										JOINT LeftHandThumb2
										{
											OFFSET 0.000000 3.350399 0.000000
											CHANNELS 3 Zrotation Yrotation Xrotation
											JOINT LeftHandThumb3
											{
												OFFSET 0.000000 3.756509 0.000000
												CHANNELS 3 Zrotation Yrotation Xrotation
												JOINT LeftHandThumb4
												{
													OFFSET -0.000000 3.100000 0.000000
													CHANNELS 3 Zrotation Yrotation Xrotation
													End Site
													{
														OFFSET 0.000000 0.000000 0.000000
													}
												}
											}
										}
									}
									JOINT LeftHandIndex1
									{
										OFFSET 0.086752 10.030893 2.345280
										CHANNELS 3 Zrotation Yrotation Xrotation
										JOINT LeftHandIndex2
										{
											OFFSET -0.000000 4.061090 -0.000000
											CHANNELS 3 Zrotation Yrotation Xrotation
											JOINT LeftHandIndex3
											{
												OFFSET -0.000000 3.248873 -0.000000
												CHANNELS 3 Zrotation Yrotation Xrotation
												JOINT LeftHandIndex4
												{
													OFFSET -0.000000 2.639709 -0.000000
													CHANNELS 3 Zrotation Yrotation Xrotation
													End Site
													{
														OFFSET 0.000000 0.000000 0.000000
													}
												}
											}
										}
									}
									JOINT LeftHandMiddle1
									{
										OFFSET -0.104102 9.502952 0.006768
										CHANNELS 3 Zrotation Yrotation Xrotation
										JOINT LeftHandMiddle2
										{
											OFFSET 0.000000 4.568727 -0.000000
											CHANNELS 3 Zrotation Yrotation Xrotation
											JOINT LeftHandMiddle3
											{
												OFFSET 0.000000 3.654981 0.000000
												CHANNELS 3 Zrotation Yrotation Xrotation
												JOINT LeftHandMiddle4
												{
													OFFSET 0.000000 2.741236 0.000000
													CHANNELS 3 Zrotation Yrotation Xrotation
													End Site
													{
														OFFSET 0.000000 0.000000 0.000000
													}
												}
											}
										}
									}
									JOINT LeftHandRing1
									{
										OFFSET -0.086752 8.921708 -2.267442
										CHANNELS 3 Zrotation Yrotation Xrotation
										JOINT LeftHandRing2
										{
											OFFSET -0.000000 4.061090 -0.000000
											CHANNELS 3 Zrotation Yrotation Xrotation
											JOINT LeftHandRing3
											{
												OFFSET 0.000000 3.654981 0.000000
												CHANNELS 3 Zrotation Yrotation Xrotation
												JOINT LeftHandRing4
												{
													OFFSET -0.000000 2.741236 -0.000000
													CHANNELS 3 Zrotation Yrotation Xrotation
													End Site
													{
														OFFSET 0.000000 0.000000 0.000000
													}
												}
											}
										}
									}
									JOINT LeftHandPinky1
									{
										OFFSET 0.173504 7.976997 -4.467199
										CHANNELS 3 Zrotation Yrotation Xrotation
										JOINT LeftHandPinky2
										{
											OFFSET 0.000000 3.350399 -0.000000
											CHANNELS 3 Zrotation Yrotation Xrotation
											JOINT LeftHandPinky3
											{
												OFFSET 0.000000 2.842763 0.000000
												CHANNELS 3 Zrotation Yrotation Xrotation
												JOINT LeftHandPinky4
												{
													OFFSET -0.000000 2.639709 -0.000000
													CHANNELS 3 Zrotation Yrotation Xrotation
													End Site
													{
														OFFSET 0.000000 0.000000 0.000000
													}
												}
											}
										}
									}
									JOINT LeftForeArmEnd
									{
										OFFSET 0.000000 0.000000 0.000000
										CHANNELS 3 Zrotation Yrotation Xrotation
										End Site
										{
											OFFSET 0.000000 0.000000 0.000000
										}
									}
								}
								JOINT LeftArmEnd
								{
									OFFSET 0.000000 0.000000 0.000000
									CHANNELS 3 Zrotation Yrotation Xrotation
									End Site
									{
										OFFSET 0.000000 0.000000 0.000000
									}
								}
							}
						}
					}
				}
			}
		}
	}
	JOINT RightUpLeg
	{
		OFFSET -11.289943 0.000000 -0.000000
		CHANNELS 3 Zrotation Yrotation Xrotation
		JOINT RightLeg
		{
			OFFSET 0.000000 -38.200325 -0.000000
			CHANNELS 3 Zrotation Yrotation Xrotation
			JOINT RightFoot
			{
				OFFSET -0.000000 -39.900856 -0.000000
				CHANNELS 3 Zrotation Yrotation Xrotation
				JOINT RightToeBase
				{
					OFFSET -0.000000 0.000000 15.261641
					CHANNELS 3 Zrotation Yrotation Xrotation
					JOINT RightToeBaseEnd
					{
						OFFSET 0.000000 0.000000 7.370709
						CHANNELS 3 Zrotation Yrotation Xrotation
						End Site
						{
							OFFSET 0.000000 0.000000 0.000000
						}
					}
				}
				JOINT RightLegEnd
				{
					OFFSET 0.000000 0.000000 0.000000
					CHANNELS 3 Zrotation Yrotation Xrotation
					End Site
					{
						OFFSET 0.000000 0.000000 0.000000
					}
				}
			}
			JOINT RightUpLegEnd
			{
				OFFSET 0.000000 0.000000 0.000000
				CHANNELS 3 Zrotation Yrotation Xrotation
				End Site
				{
					OFFSET 0.000000 0.000000 0.000000
				}
			}
		}
	}
	JOINT LeftUpLeg
	{
		OFFSET 11.315661 -0.000000 -0.000000
		CHANNELS 3 Zrotation Yrotation Xrotation
		JOINT LeftLeg
		{
			OFFSET 0.000000 -38.200325 0.000000
			CHANNELS 3 Zrotation Yrotation Xrotation
			JOINT LeftFoot
			{
				OFFSET 0.000000 -39.900856 0.000000
				CHANNELS 3 Zrotation Yrotation Xrotation
				JOINT LeftToeBase
				{
					OFFSET 0.000000 -0.000000 15.261641
					CHANNELS 3 Zrotation Yrotation Xrotation
					JOINT LeftToeBaseEnd
					{
						OFFSET -0.000000 0.000000 7.539996
						CHANNELS 3 Zrotation Yrotation Xrotation
						End Site
						{
							OFFSET 0.000000 0.000000 0.000000
						}
					}
				}
				JOINT LeftLegEnd
				{
					OFFSET 0.000000 0.000000 0.000000
					CHANNELS 3 Zrotation Yrotation Xrotation
					End Site
					{
						OFFSET 0.000000 0.000000 0.000000
					}
				}
			}
			JOINT LeftUpLegEnd
			{
				OFFSET 0.000000 0.000000 0.000000
				CHANNELS 3 Zrotation Yrotation Xrotation
				End Site
				{
					OFFSET 0.000000 0.000000 0.000000
				}
			}
		}
	}
}
MOTION
Frames: 4
Frame Time: 0.016667
0.717293 88.513641 3.606412 -0.807625 -0.145498 -10.211953 2.974575 -0.200603 8.045942 0.343280 -0.161376 3.810282 0.356144 -1.985393 3.162312 -0.570617 -0.651933 1.640799 0.102534 -1.376300 4.726995 -0.786954 -0.955029 -2.695320 -0.607556 -0.996725 -19.207796 0.000000 0.000000 0.000000 90.633385 -0.099941 10.407545 65.336464 -33.843838 4.224475 -0.450088 10.791811 20.358622 7.570276 13.503039 -6.307324 10.937046 -1.865515 39.738762 0.000000 0.000000 -26.639997 0.000000 0.000000 -18.499998 0.000000 0.000000 0.000000 13.612741 0.000000 -9.950699 9.528920 0.000000 0.000000 9.528920 0.000000 0.000000 0.000000 0.000000 0.000000 12.607718 -0.000000 -10.819226 8.825400 0.000000 0.000000 8.825400 0.000000 0.000000 0.000000 0.000000 0.000000 14.150433 -0.000000 -9.929859 9.905301 0.000000 0.000000 9.905301 0.000000 0.000000 0.000000 0.000000 0.000000 14.986264 0.000000 -10.561732 10.490384 0.000000 0.000000 10.490384 0.000000 0.000000 0.000000 0.000000 0.000000 0.000000 0.000000 0.000000 0.000000 0.000000 0.000000 -87.418159 -0.270548 6.233880 -75.998817 26.272921 -6.204399 -0.339548 -5.544445 38.662582 0.678041 -17.794977 -13.609647 -10.637670 1.840800 39.870987 0.000000 0.000000 -25.919998 0.000000 0.000000 -18.000004 0.000000 0.000000 0.000000 -12.784686 -0.000000 -9.414296 -8.949280 0.000000 0.000000 -8.949280 0.000000 0.000000 0.000000 0.000000 0.000000 -12.048728 -0.000000 -10.392732 -8.434110 0.000000 0.000000 -8.434110 0.000000 0.000000 0.000000 0.000000 0.000000 -13.654737 -0.000000 -11.575627 -9.558316 0.000000 0.000000 -9.558316 0.000000 0.000000 0.000000 0.000000 0.000000 -14.250447 -0.000000 -12.885098 -9.975311 0.000000 0.000000 -9.975311 0.000000 0.000000 0.000000 0.000000 0.000000 0.000000 0.000000 0.000000 0.000000 0.000000 0.000000 1.136141 -14.518364 12.126021 -0.031131 -0.345450 4.775295 -3.873879 -13.260001 19.727701 -0.519588 0.644877 -18.908152 0.000000 0.000000 0.000000 0.000000 0.000000 0.000000 0.000000 0.000000 0.000000 8.610489 -1.127510 2.905101 0.263057 0.928557 15.818079 -1.732145 6.252617 17.146845 1.232856 -0.489963 -24.107113 0.000000 0.000000 0.000000 0.000000 0.000000 0.000000 0.000000 0.000000 0.000000 
0.665006 88.484688 3.333428 -1.463968 -0.319313 -9.938092 3.666518 -0.731444 7.183403 1.201264 -0.492160 4.784245 -0.158021 -1.639141 3.044138 -1.237778 -0.558888 3.360852 -0.086445 -1.027257 3.741365 -0.777926 -1.119910 -4.011382 -0.526879 -0.839066 -18.234453 0.000000 0.000000 0.000000 90.377678 -0.189223 9.750721 64.766914 -31.505037 6.353308 -0.070315 13.363487 20.840744 8.272377 11.872123 -5.943123 10.805198 -1.867427 39.819977 0.000004 0.000027 -26.216539 0.000007 0.000041 -18.080009 0.000005 -0.000003 -0.000024 13.125438 0.022369 -10.619350 9.140141 -0.020285 -0.014665 9.206665 -0.002372 -0.017425 -0.000031 0.000045 -0.000040 12.824074 0.016844 -11.518627 8.588751 -0.013030 -0.019023 8.701456 0.004604 -0.015930 0.000030 0.000025 0.000008 15.212464 -0.040289 -10.961146 9.803287 0.015388 0.084285 9.775052 -0.013636 0.062340 -0.000014 0.000056 0.000019 16.126060 -0.063387 -11.890409 10.499056 -0.020776 0.447157 10.284611 -0.072081 0.366323 0.000272 -0.000005 0.000015 0.000000 0.000000 0.000000 0.000000 0.000000 0.000000 -87.551888 -0.213505 6.786199 -74.430954 25.677252 -5.219632 -0.521162 -9.165673 40.121586 0.903318 -14.590974 -14.459742 -10.249955 1.798981 40.026386 -0.000011 0.000028 -25.090605 -0.000015 -0.000028 -17.423304 -0.000424 -0.000009 0.000710 -12.755983 0.095644 -9.413524 -8.924047 -0.025404 0.047365 -9.146379 0.002767 0.045909 0.000008 0.000048 -0.000010 -12.171656 0.036039 -10.320951 -8.613273 -0.021276 0.025634 -8.359856 0.001962 0.026269 -0.000346 -0.000030 -0.000070 -13.834652 -0.008613 -10.920926 -9.633410 0.032923 -0.090193 -9.464920 -0.000505 -0.056351 0.000407 0.000007 0.000004 -14.009179 -0.010546 -11.913779 -9.997758 0.044262 -0.203996 -9.987947 -0.024354 -0.199964 0.000042 -0.000017 -0.000027 0.000000 0.000000 0.000000 0.000000 0.000000 0.000000 1.810754 -14.893821 11.253635 -0.000240 -0.426214 5.596145 -5.039357 -13.427629 19.438896 -0.754475 0.556847 -18.879848 0.000000 0.000000 0.000000 0.000000 0.000000 0.000000 0.000000 0.000000 0.000000 9.092174 -0.599775 2.956138 0.320638 0.948868 16.615629 -3.449231 5.551934 20.460533 0.753994 -0.418852 -23.011028 0.000000 0.000000 0.000000 0.000000 0.000000 0.000000 0.000000 0.000000 0.000000 
0.589518 88.460930 3.274316 -1.401794 -0.124939 -10.015539 3.613696 -0.722388 7.168519 1.237856 -0.503401 4.859936 -0.263121 -1.618989 3.027568 -1.186546 -0.570017 3.462201 -0.025517 -1.141178 3.921894 -0.765901 -1.215217 -3.833762 -0.532880 -0.840345 -18.254164 0.000000 0.000000 0.000000 90.464523 -0.197713 9.831284 64.708832 -31.190102 6.366447 -0.106283 13.552333 21.238302 8.053041 11.847421 -6.274936 10.742105 -1.859499 39.854408 -0.000006 0.000052 -26.045109 0.000019 0.000033 -17.965471 0.000018 0.000004 -0.000043 12.950330 0.028194 -10.480026 9.049353 -0.023689 -0.011179 9.095149 -0.004310 -0.010813 -0.000010 0.000059 -0.000030 12.597948 0.019681 -11.382476 8.510625 -0.015763 -0.013489 8.617374 0.002917 -0.011818 0.000024 0.000007 -0.000011 14.939921 -0.045360 -10.832692 9.692585 0.019605 0.067806 9.678992 -0.010240 0.049664 -0.000023 0.000195 0.000001 15.898874 -0.076539 -11.773746 10.431516 -0.005227 0.392352 10.216818 -0.060700 0.324860 0.000267 0.000007 0.000021 0.000000 0.000000 0.000000 0.000000 0.000000 0.000000 -87.502632 -0.253478 6.850346 -74.654800 25.375204 -5.377451 -0.485232 -9.152225 40.567444 0.951694 -14.712273 -14.528918 -10.192245 1.784890 40.053665 0.000008 0.000029 -24.959505 -0.000021 -0.000012 -17.335712 -0.000566 0.000003 0.000617 -12.514311 0.106580 -9.375201 -8.901916 -0.027506 0.036156 -9.111914 0.000853 0.030996 0.000020 -0.000005 -0.000002 -11.928953 0.040812 -10.329333 -8.641015 -0.022279 0.017575 -8.399994 0.001454 0.021429 -0.000347 -0.000022 -0.000089 -13.706812 -0.010193 -10.983310 -9.727798 0.034285 -0.083185 -9.574093 0.000390 -0.049798 0.000602 0.000014 0.000009 -14.006763 -0.014860 -12.018709 -10.158134 0.047856 -0.181282 -10.161677 -0.023134 -0.181515 -0.000034 0.000007 -0.000051 0.000000 0.000000 0.000000 0.000000 0.000000 0.000000 1.764521 -15.049322 11.270561 0.001670 -0.412110 5.492679 -5.145766 -13.434486 19.504549 -0.738841 0.545144 -18.894341 0.000000 0.000000 0.000000 0.000000 0.000000 0.000000 0.000000 0.000000 0.000000 9.125484 -0.709216 2.806601 0.323368 0.959990 16.677671 -3.478265 5.330692 20.533409 0.754808 -0.438834 -23.061230 0.000000 0.000000 0.000000 0.000000 0.000000 0.000000 0.000000 0.000000 0.000000 
0.532755 88.447701 3.224406 -1.326333 0.058677 -10.080050 3.566105 -0.709597 7.164486 1.301508 -0.519097 4.897573 -0.375443 -1.533737 3.027907 -1.173496 -0.554296 3.509197 -0.007045 -1.204300 4.009946 -0.748210 -1.300068 -3.730191 -0.518234 -0.847230 -18.298933 0.000000 0.000000 0.000000 90.497704 -0.169869 9.923488 64.910431 -30.587778 6.147614 -0.138754 13.921259 22.139185 7.547585 11.630081 -6.393435 10.674553 -1.848495 39.892757 -0.000006 0.000051 -25.874649 0.000018 0.000034 -17.845181 0.000018 0.000003 -0.000042 12.723903 0.030919 -10.334207 8.982276 -0.023043 -0.012740 8.999791 -0.002424 -0.008912 -0.000010 0.000058 -0.000030 12.315908 0.021089 -11.271690 8.454942 -0.016617 -0.010821 8.562461 0.002544 -0.010178 0.000025 0.000007 -0.000010 14.603068 -0.047684 -10.810037 9.598795 0.020221 0.056434 9.599840 -0.009331 0.041057 -0.000021 0.000401 0.000001 15.549611 -0.080320 -11.809889 10.366889 -0.001123 0.357433 10.157190 -0.059135 0.296130 0.000251 0.000006 0.000015 0.000000 0.000000 0.000000 0.000000 0.000000 0.000000 -87.426933 -0.257585 6.899476 -74.912338 24.972540 -5.555363 -0.440795 -9.311528 41.165787 1.118438 -14.699080 -14.436801 -10.154685 1.775509 40.072155 0.000008 0.000029 -24.886223 -0.000023 -0.000012 -17.283138 -0.000649 0.000003 0.000622 -12.320854 0.110249 -9.145591 -8.886227 -0.026546 0.034983 -9.084410 0.002054 0.023731 0.000018 -0.000064 -0.000002 -11.737498 0.042466 -10.208119 -8.666961 -0.022344 0.013898 -8.441614 0.001978 0.019669 -0.000384 -0.000021 -0.000099 -13.597417 -0.010135 -10.986999 -9.812334 0.033266 -0.081227 -9.674098 -0.000416 -0.046591 0.000744 0.000014 0.000009 -14.022960 -0.018178 -12.114356 -10.306091 0.045461 -0.177239 -10.327974 -0.027082 -0.172024 -0.000123 0.000007 -0.000051 0.000000 0.000000 0.000000 0.000000 0.000000 0.000000 1.674623 -15.168041 11.341957 0.003974 -0.397901 5.345188 -5.240409 -13.441464 19.590763 -0.738029 0.534162 -18.915016 0.000000 0.000000 0.000000 0.000000 0.000000 0.000000 0.000000 0.000000 0.000000 9.133536 -0.842816 2.731770 0.324300 0.968998 16.718224 -3.513761 5.142727 20.542645 0.748843 -0.454360 -23.081520 0.000000 0.000000 0.000000 0.000000 0.000000 0.000000 0.000000 0.000000 0.000000 
